<svg width="30" height="30" viewBox="0 0 30 30" fill="none" xmlns="http://www.w3.org/2000/svg">
<circle cx="15" cy="15" r="15" fill="#101D42"/>
<path d="M24.0513 9.59611L19.3438 14.5421C19.3088 14.5782 19.3088 14.6324 19.3438 14.6685L22.6381 18.2877C22.8613 18.5179 22.8613 18.8879 22.6381 19.1181C22.5288 19.2309 22.38 19.2896 22.2356 19.2896C22.0913 19.2896 21.9425 19.2309 21.8331 19.1181L18.5519 15.5124C18.5169 15.4763 18.46 15.4763 18.425 15.5124L17.6244 16.3518C16.955 17.0512 16.0669 17.4393 15.1131 17.4439C14.1463 17.4484 13.2275 17.0287 12.5494 16.3202L11.7794 15.5124C11.7444 15.4763 11.6875 15.4763 11.6525 15.5124L8.37125 19.1181C8.26188 19.2309 8.11313 19.2896 7.96875 19.2896C7.82438 19.2896 7.67563 19.2309 7.56625 19.1181C7.34313 18.8879 7.34313 18.5179 7.56625 18.2877L10.8606 14.6685C10.8913 14.6324 10.8913 14.5782 10.8606 14.5421L6.14875 9.59611C6.09188 9.53745 6 9.57806 6 9.65929V19.5558C6 20.3501 6.63 20.9999 7.4 20.9999H22.8C23.57 20.9999 24.2 20.3501 24.2 19.5558V9.65929C24.2 9.57806 24.1038 9.54196 24.0513 9.59611V9.59611Z" fill="#F5F5F5"/>
<path d="M15.0955 16.2629C15.743 16.2629 16.3512 16.0012 16.8062 15.5228L23.6705 8.3159C23.4299 8.11733 23.1324 8 22.8043 8H7.39115C7.06303 8 6.76115 8.11733 6.5249 8.3159L13.3893 15.5228C13.8399 15.9967 14.448 16.2629 15.0955 16.2629V16.2629Z" fill="#F5F5F5"/>
</svg>
