<svg width="30" height="30" viewBox="0 0 30 30" fill="none" xmlns="http://www.w3.org/2000/svg">
<circle cx="15" cy="15" r="15" fill="#101D42"/>
<path d="M21.8197 7.00006H8.18033C7.87086 6.9971 7.57278 7.10936 7.3515 7.31221C7.13022 7.51505 7.0038 7.7919 7 8.08202V20.9204C7.00449 21.2101 7.13121 21.4864 7.35242 21.6887C7.57362 21.891 7.87131 22.0029 8.18033 21.9999H21.8197C22.1292 22.0022 22.427 21.8896 22.6482 21.6866C22.8694 21.4837 22.9959 21.2069 23 20.9168V8.07833C22.9945 7.78906 22.8674 7.51353 22.6464 7.31162C22.4254 7.10971 22.1283 6.99774 21.8197 7.00006ZM11.7436 19.7868H9.36852V12.6226H11.7436V19.7868ZM10.5633 11.6463C10.2909 11.6466 10.0245 11.5711 9.79787 11.4294C9.57125 11.2877 9.39454 11.0861 9.29012 10.8502C9.18569 10.6144 9.15823 10.3548 9.21122 10.1043C9.2642 9.85375 9.39525 9.62361 9.58778 9.44294C9.78031 9.26227 10.0257 9.13919 10.2928 9.08928C10.56 9.03937 10.8369 9.06486 11.0886 9.16254C11.3403 9.26021 11.5555 9.42568 11.7069 9.638C11.8582 9.85033 11.939 10.1 11.939 10.3554C11.9387 10.5251 11.9026 10.6931 11.8329 10.8498C11.7633 11.0064 11.6613 11.1487 11.5329 11.2684C11.4045 11.388 11.2522 11.4828 11.0847 11.5473C10.9172 11.6117 10.7378 11.6445 10.5567 11.6439L10.5633 11.6463ZM20.6393 19.7868H18.2643V16.3012C18.2643 15.4713 18.2485 14.4029 17.0302 14.4029C15.8118 14.4029 15.6046 15.3078 15.6046 16.2471V19.7868H13.2334V12.6226H15.5102V13.6062H15.5416C15.859 13.043 16.6328 12.4492 17.7882 12.4492C20.1934 12.4443 20.6393 13.9283 20.6393 15.8524V19.7868Z" fill="#F5F5F5"/>
</svg>
