<svg width="30" height="30" viewBox="0 0 30 30" fill="none" xmlns="http://www.w3.org/2000/svg">
<circle cx="15" cy="15" r="15" fill="#101D42"/>
<path d="M14.9978 6H14.9676C12.571 6.00865 10.3216 6.9476 8.62581 8.64375C6.93439 10.3442 6 12.5986 6 15C6 17.4014 6.93439 19.6558 8.63014 21.3563C10.3216 23.0524 12.5753 23.9913 14.9719 24H15.0022C19.964 24 24 19.963 24 15C24 10.037 19.9596 6 14.9978 6ZM22.7931 14.3942H19.4362C19.3973 13.2389 19.2545 12.1356 19.0123 11.0971C19.752 10.8591 20.4701 10.5563 21.1622 10.1885C22.1139 11.4087 22.6763 12.8538 22.7931 14.3942ZM14.3922 14.3942H11.7188C11.7534 13.3341 11.8832 12.3303 12.0995 11.4043C12.8522 11.5731 13.6179 11.6769 14.3922 11.7115V14.3942ZM14.3922 15.6058V18.2841C13.6222 18.3188 12.8522 18.4226 12.0995 18.5913C11.8832 17.6654 11.7534 16.6615 11.7188 15.6058H14.3922ZM15.6035 15.6058H18.2552C18.2206 16.6615 18.0908 17.6654 17.8745 18.587C17.1305 18.4183 16.3691 18.3188 15.6035 18.2841V15.6058ZM15.6035 14.3942V11.7115C16.3735 11.6769 17.1348 11.5731 17.8745 11.4087C18.0908 12.3346 18.2206 13.3341 18.2552 14.3942H15.6035ZM20.336 9.29279C19.8039 9.55673 19.2545 9.78173 18.6921 9.96346C18.385 9.0375 17.9957 8.23702 17.5458 7.60529C18.584 7.96442 19.5314 8.5399 20.336 9.29279ZM17.5501 10.275C16.9142 10.4135 16.261 10.5 15.6035 10.5346V7.35865C16.3389 7.75673 17.057 8.82548 17.5501 10.275ZM14.3922 7.34135V10.5303C13.726 10.4957 13.0685 10.4091 12.4239 10.2663C12.9257 8.80385 13.6525 7.7351 14.3922 7.34135ZM12.4196 7.61827C11.974 8.24567 11.589 9.04183 11.2819 9.95913C10.7282 9.7774 10.1831 9.5524 9.6597 9.29279C10.4557 8.54423 11.3944 7.97308 12.4196 7.61827V7.61827ZM8.83345 10.1928C9.51694 10.5562 10.2307 10.8591 10.9618 11.0928C10.7152 12.1269 10.5725 13.2346 10.5379 14.3899H7.20692C7.31939 12.8582 7.88176 11.413 8.83345 10.1928V10.1928ZM7.2026 15.6058H10.5335C10.5725 16.7611 10.7152 17.8688 10.9575 18.9029C10.2264 19.1409 9.51262 19.4438 8.82913 19.8029C7.88176 18.587 7.31939 17.1418 7.2026 15.6058V15.6058ZM9.65537 20.7072C10.1788 20.4476 10.7239 20.2226 11.2819 20.0409C11.589 20.9625 11.974 21.7543 12.4196 22.3861C11.3944 22.0226 10.4557 21.4558 9.65537 20.7072ZM12.4239 19.7293C13.0685 19.5865 13.7304 19.5 14.3922 19.4654V22.6587C13.6482 22.2649 12.9257 21.1918 12.4239 19.7293V19.7293ZM15.6035 22.6413V19.4611C16.261 19.4957 16.9142 19.5822 17.5501 19.7207C17.057 21.1745 16.3389 22.2433 15.6035 22.6413ZM17.5501 22.3947C18 21.763 18.3893 20.9625 18.6965 20.0365C19.2588 20.2183 19.8125 20.4476 20.3403 20.7115C19.5357 21.4601 18.584 22.0356 17.5501 22.3947ZM21.1622 19.8072C20.4701 19.4394 19.752 19.1365 19.0123 18.8986C19.2545 17.8644 19.3973 16.7611 19.4362 15.6058H22.7931C22.6763 17.1418 22.1182 18.587 21.1622 19.8072V19.8072Z" fill="#F5F5F5" stroke="#F5F5F5" stroke-width="0.3"/>
</svg>
